<svg width="14" height="23" viewBox="0 0 14 23" fill="none" xmlns="http://www.w3.org/2000/svg">
<path fill-rule="evenodd" clip-rule="evenodd" d="M14 2.15625V20.8438C14 21.4427 13.7958 21.9518 13.3875 22.3711C12.9792 22.7904 12.4833 23 11.9 23H2.1C1.51667 23 1.02083 22.7904 0.6125 22.3711C0.204167 21.9518 0 21.4427 0 20.8438V2.15625C0 1.55729 0.204167 1.04818 0.6125 0.628906C1.02083 0.209636 1.51667 0 2.1 0H11.9C12.4833 0 12.9792 0.209636 13.3875 0.628906C13.7958 1.04818 14 1.55729 14 2.15625ZM9 18.5C9 18.9062 8.85156 19.2578 8.55469 19.5547C8.25781 19.8516 7.90625 20 7.5 20C7.09375 20 6.74219 19.8516 6.44531 19.5547C6.14844 19.2578 6 18.9062 6 18.5C6 18.0938 6.14844 17.7422 6.44531 17.4453C6.74219 17.1484 7.09375 17 7.5 17C7.90625 17 8.25781 17.1484 8.55469 17.4453C8.85156 17.7422 9 18.0938 9 18.5ZM12 2.27404V20.726C12 20.7869 11.9702 20.8478 11.9107 20.9087C11.8512 20.9696 11.7917 21 11.7321 21H2.26786C2.20833 21 2.14881 20.9696 2.08929 20.9087C2.02976 20.8478 2 20.7869 2 20.726V2.27404C2 2.21314 2.02976 2.15224 2.08929 2.09135C2.14881 2.03045 2.20833 2 2.26786 2H11.7321C11.7917 2 11.8512 2.03045 11.9107 2.09135C11.9702 2.15224 12 2.21314 12 2.27404Z" fill="#A6B1BB"/>
</svg>
